<?xml version="1.0" encoding="UTF-8"?> <!-- Generator: Adobe Illustrator 14.0.0, SVG Export Plug-In --> <svg xmlns="http://www.w3.org/2000/svg" xmlns:xlink="http://www.w3.org/1999/xlink" xmlns:a="http://ns.adobe.com/AdobeSVGViewerExtensions/3.0/" x="0px" y="0px" width="150px" height="150px" viewBox="-4.215 -8.299 150 150" xml:space="preserve"> <defs> </defs> <circle fill="none" stroke="#262261" stroke-width="2" cx="70.978" cy="67.674" r="66.674"></circle> <rect x="1" y="55.161" fill="#262261" stroke="#262261" stroke-width="2" width="139.569" height="25.384"></rect> <circle fill="none" stroke="#262261" stroke-width="3" cx="70.978" cy="67.674" r="45.411"></circle> <circle fill="#262261" cx="70.978" cy="67.674" r="45.471"></circle> <path fill="#262261" d="M24.11,45.146l-0.703,1.704l-2.557-1.056l-0.813,1.97l2.557,1.055l-0.703,1.704l-6.272-2.589l0.703-1.703 l2.325,0.959l0.813-1.969l-2.325-0.959l0.703-1.703L24.11,45.146z"></path> <path fill="#262261" d="M27.256,39.637l-1.261-0.372l-1.138,1.889l0.911,0.95l-1.04,1.726l-4.691-5.415L21.3,36.32l6.992,1.599 L27.256,39.637z M24.511,38.815l-1.105-0.326c-0.247-0.069-0.564-0.164-0.951-0.283c-0.387-0.119-0.661-0.209-0.823-0.271 c0.12,0.105,0.314,0.286,0.582,0.543S23,39.26,23.766,40.05L24.511,38.815z"></path> <path fill="#262261" d="M28.458,33.762l1.91,1.564l-1.162,1.418l-5.249-4.3l1.409-1.72c1.168-1.426,2.27-1.716,3.304-0.869 c0.608,0.498,0.835,1.18,0.682,2.046l3.54,0.344l-1.318,1.608l-2.822-0.452L28.458,33.762z M27.392,32.888l0.217-0.266 c0.407-0.496,0.391-0.923-0.047-1.281c-0.362-0.297-0.742-0.202-1.14,0.284l-0.229,0.281L27.392,32.888z"></path> <path fill="#262261" d="M34.307,24.569c0.517,0.553,0.754,1.133,0.709,1.741s-0.368,1.191-0.969,1.753l-0.376,0.352l1.537,1.646 l-1.34,1.25l-4.632-4.958l1.716-1.603c0.626-0.585,1.225-0.887,1.794-0.908C33.315,23.823,33.835,24.064,34.307,24.569z M32.649,27.323l0.244-0.228c0.202-0.188,0.309-0.394,0.322-0.618c0.013-0.224-0.074-0.436-0.259-0.633 c-0.313-0.335-0.654-0.329-1.025,0.018l-0.346,0.323L32.649,27.323z"></path> <path fill="#262261" d="M42.167,24.437l-3.254,2.375l-4-5.481l3.254-2.375l0.867,1.189l-1.774,1.294l0.629,0.862l1.642-1.199 l0.868,1.189l-1.642,1.199l0.754,1.034l1.773-1.294L42.167,24.437z"></path> <path fill="#262261" d="M44.206,20.331l1.191,2.163l-1.605,0.885l-3.274-5.944l1.947-1.072c1.616-0.89,2.746-0.749,3.391,0.42 c0.379,0.689,0.337,1.407-0.128,2.154l3.159,1.635l-1.821,1.004l-2.452-1.469L44.206,20.331z M43.541,19.124l0.301-0.166 c0.561-0.309,0.704-0.712,0.431-1.208c-0.226-0.41-0.613-0.462-1.163-0.16l-0.317,0.175L43.541,19.124z"></path> <path fill="#262261" d="M48.931,13.265l0.104,0.067c0.181,1.154,0.269,2.059,0.264,2.718l-1.188,0.505 c-0.191-0.985-0.405-1.873-0.642-2.667L48.931,13.265z"></path> <path fill="#262261" d="M56.737,15.551c0.129,0.4,0.141,0.789,0.039,1.165c-0.104,0.376-0.319,0.712-0.646,1.007 s-0.749,0.526-1.265,0.691c-0.43,0.139-0.8,0.225-1.111,0.258c-0.312,0.033-0.649,0.025-1.012-0.023l-0.5-1.555 c0.388,0.063,0.777,0.086,1.167,0.065c0.39-0.019,0.735-0.078,1.036-0.174c0.259-0.083,0.434-0.189,0.527-0.317 c0.092-0.129,0.115-0.265,0.069-0.407c-0.029-0.088-0.078-0.157-0.148-0.208c-0.07-0.05-0.169-0.092-0.298-0.125 c-0.13-0.033-0.46-0.08-0.993-0.139c-0.483-0.056-0.858-0.14-1.127-0.252c-0.269-0.113-0.491-0.269-0.667-0.469 s-0.315-0.458-0.418-0.777c-0.191-0.595-0.124-1.129,0.202-1.601c0.327-0.472,0.867-0.83,1.625-1.072 c0.668-0.215,1.4-0.28,2.194-0.195l-0.101,1.52c-0.692-0.083-1.259-0.054-1.698,0.087c-0.227,0.073-0.379,0.166-0.456,0.279 c-0.078,0.113-0.097,0.228-0.06,0.346c0.041,0.126,0.142,0.218,0.306,0.277c0.163,0.057,0.577,0.126,1.243,0.204 c0.637,0.071,1.11,0.217,1.419,0.434C56.372,14.788,56.597,15.115,56.737,15.551z"></path> <path fill="#262261" d="M68.128,15.763l-1.831,0.202l-0.303-2.75l-2.118,0.233l0.305,2.75l-1.832,0.202l-0.744-6.745l1.831-0.202 l0.277,2.501l2.117-0.234l-0.276-2.5l1.832-0.202L68.128,15.763z"></path> <path fill="#262261" d="M70.384,15.763l0.046-6.785l1.843,0.012l-0.046,6.785L70.384,15.763z"></path> <path fill="#262261" d="M77.664,12.196l2.907,0.353l-0.439,3.63c-0.822,0.174-1.706,0.205-2.652,0.089 c-1.038-0.125-1.805-0.524-2.299-1.194c-0.493-0.671-0.673-1.564-0.537-2.679c0.132-1.087,0.545-1.896,1.238-2.426 c0.694-0.529,1.6-0.728,2.719-0.591c0.423,0.051,0.818,0.14,1.186,0.266c0.365,0.124,0.682,0.265,0.945,0.422l-0.748,1.358 c-0.457-0.298-0.975-0.482-1.555-0.552c-0.532-0.065-0.964,0.058-1.296,0.368c-0.332,0.311-0.537,0.787-0.614,1.429 c-0.077,0.629-0.004,1.125,0.219,1.487s0.581,0.572,1.075,0.633c0.271,0.033,0.522,0.037,0.756,0.013l0.128-1.055l-1.202-0.146 L77.664,12.196z"></path> <path fill="#262261" d="M87.728,18.45l-1.774-0.493l0.74-2.666l-2.053-0.57l-0.74,2.664l-1.775-0.493l1.817-6.538l1.775,0.494 l-0.674,2.423l2.053,0.57l0.673-2.424l1.775,0.494L87.728,18.45z"></path> <path fill="#262261" d="M97.752,20.739c-0.191,0.375-0.456,0.658-0.795,0.852s-0.729,0.278-1.169,0.257 c-0.44-0.022-0.902-0.157-1.384-0.403c-0.402-0.206-0.726-0.407-0.969-0.604c-0.244-0.196-0.478-0.439-0.7-0.731l0.744-1.454 c0.229,0.319,0.489,0.609,0.78,0.871c0.29,0.263,0.575,0.464,0.856,0.608c0.242,0.124,0.441,0.174,0.598,0.147 c0.155-0.027,0.268-0.105,0.335-0.238c0.043-0.082,0.057-0.167,0.043-0.252s-0.055-0.185-0.123-0.299 c-0.068-0.116-0.27-0.383-0.604-0.801c-0.302-0.38-0.509-0.704-0.619-0.973c-0.111-0.27-0.158-0.537-0.143-0.803 c0.017-0.266,0.101-0.548,0.254-0.845c0.285-0.556,0.709-0.886,1.273-0.99c0.564-0.104,1.2,0.025,1.907,0.387 c0.626,0.321,1.189,0.792,1.691,1.413l-1.146,1.005c-0.432-0.549-0.854-0.927-1.264-1.138c-0.212-0.108-0.385-0.15-0.52-0.125 c-0.134,0.026-0.229,0.093-0.286,0.204c-0.061,0.118-0.054,0.255,0.021,0.411c0.075,0.157,0.319,0.498,0.736,1.024 c0.4,0.5,0.633,0.937,0.697,1.308C98.034,19.942,97.962,20.332,97.752,20.739z"></path> <path fill="#262261" d="M103.88,20.761c-0.36-0.246-0.742-0.291-1.146-0.134c-0.404,0.155-0.783,0.493-1.138,1.011 c-0.738,1.078-0.697,1.897,0.122,2.458c0.247,0.169,0.511,0.299,0.791,0.39c0.279,0.089,0.569,0.167,0.871,0.23l-0.877,1.279 c-0.608-0.113-1.208-0.371-1.797-0.775c-0.846-0.58-1.325-1.268-1.439-2.067c-0.115-0.799,0.145-1.662,0.779-2.587 c0.396-0.58,0.854-1.014,1.374-1.304c0.52-0.289,1.064-0.412,1.636-0.367c0.571,0.044,1.134,0.256,1.688,0.636 c0.604,0.415,1.093,0.941,1.464,1.582l-1.279,0.874c-0.14-0.239-0.291-0.461-0.452-0.669 C104.317,21.109,104.117,20.924,103.88,20.761z"></path> <path fill="#262261" d="M108.251,31.433l-1.355-1.248l1.875-2.034l-1.566-1.444l-1.875,2.034l-1.354-1.249l4.598-4.989l1.355,1.249 l-1.705,1.85l1.566,1.443l1.705-1.85l1.354,1.248L108.251,31.433z"></path> <path fill="#262261" d="M116.345,35.861c-0.894,0.711-1.747,1.032-2.561,0.963c-0.813-0.069-1.557-0.526-2.229-1.371 c-0.663-0.833-0.938-1.657-0.823-2.474s0.618-1.58,1.512-2.289c0.884-0.704,1.734-1.02,2.552-0.949 c0.818,0.072,1.562,0.528,2.231,1.372c0.673,0.845,0.951,1.669,0.835,2.474C117.748,34.39,117.241,35.147,116.345,35.861z M113.439,32.206c-1.026,0.817-1.257,1.583-0.688,2.297c0.288,0.363,0.628,0.533,1.017,0.51c0.39-0.021,0.848-0.244,1.376-0.664 c0.53-0.422,0.851-0.822,0.962-1.202c0.111-0.38,0.026-0.746-0.254-1.099C115.28,31.329,114.475,31.382,113.439,32.206z"></path> <path fill="#262261" d="M120.828,43.46c-0.995,0.56-1.889,0.74-2.681,0.544c-0.792-0.197-1.454-0.766-1.983-1.707 c-0.521-0.927-0.661-1.785-0.42-2.572c0.242-0.789,0.86-1.462,1.855-2.022c0.984-0.554,1.874-0.731,2.671-0.53 c0.796,0.199,1.457,0.769,1.985,1.708c0.529,0.94,0.673,1.799,0.432,2.574C122.446,42.23,121.826,42.898,120.828,43.46z M118.538,39.391c-1.143,0.644-1.49,1.363-1.043,2.159c0.228,0.404,0.535,0.626,0.923,0.666s0.876-0.106,1.464-0.438 c0.59-0.331,0.971-0.675,1.141-1.032c0.17-0.357,0.145-0.733-0.076-1.126C120.495,38.817,119.692,38.741,118.538,39.391z"></path> <path fill="#262261" d="M118.627,46.953l6.324-2.46l0.663,1.708l-4.943,1.924l0.947,2.435l-1.38,0.537L118.627,46.953z"></path> <path fill="#FFFFFF" d="M6.358,70.837v-6.159h1.664v4.815h2.372v1.344H6.358z"></path> <path fill="#FFFFFF" d="M15.864,68.778c0,0.69-0.17,1.216-0.509,1.575s-0.835,0.54-1.488,0.54c-0.644,0-1.138-0.181-1.481-0.543 c-0.344-0.361-0.516-0.887-0.516-1.578c0-0.684,0.171-1.205,0.513-1.565s0.838-0.541,1.49-0.541c0.654,0,1.149,0.179,1.486,0.536 C15.695,67.561,15.864,68.086,15.864,68.778z M13.038,68.778c0,0.794,0.276,1.19,0.829,1.19c0.281,0,0.489-0.096,0.625-0.289 c0.136-0.192,0.204-0.493,0.204-0.901c0-0.41-0.069-0.713-0.207-0.908c-0.138-0.196-0.343-0.294-0.617-0.294 C13.316,67.576,13.038,67.977,13.038,68.778z"></path> <path fill="#FFFFFF" d="M19.486,66.73h1.242l-1.346,4.106h-1.306l-1.34-4.106h1.247l0.559,2.081c0.116,0.463,0.18,0.785,0.191,0.967 c0.013-0.131,0.039-0.295,0.079-0.492c0.039-0.196,0.074-0.351,0.104-0.463L19.486,66.73z"></path> <path fill="#FFFFFF" d="M24.184,70.837h-2.438V66.73h2.438v0.891h-1.329v0.646h1.23v0.891h-1.23v0.775h1.329V70.837z"></path> <path fill="#FFFFFF" d="M112.484,68.273c0,0.382-0.097,0.721-0.291,1.017c-0.193,0.297-0.474,0.527-0.838,0.691 c-0.365,0.164-0.794,0.246-1.285,0.246c-0.41,0-0.754-0.028-1.032-0.086s-0.567-0.158-0.868-0.302v-1.482 c0.317,0.163,0.647,0.29,0.99,0.381c0.343,0.092,0.657,0.137,0.943,0.137c0.247,0,0.429-0.042,0.544-0.128s0.173-0.196,0.173-0.331 c0-0.084-0.023-0.158-0.069-0.221c-0.047-0.063-0.121-0.127-0.224-0.192c-0.103-0.064-0.376-0.196-0.819-0.396 c-0.401-0.183-0.703-0.359-0.903-0.531c-0.201-0.171-0.351-0.367-0.447-0.59c-0.097-0.222-0.146-0.484-0.146-0.787 c0-0.567,0.207-1.01,0.62-1.327c0.412-0.317,0.979-0.476,1.701-0.476c0.638,0,1.288,0.147,1.951,0.442l-0.51,1.285 c-0.576-0.264-1.073-0.396-1.491-0.396c-0.217,0-0.374,0.037-0.473,0.113c-0.098,0.076-0.147,0.17-0.147,0.282 c0,0.121,0.063,0.229,0.188,0.324c0.125,0.096,0.465,0.27,1.018,0.522c0.531,0.239,0.899,0.495,1.106,0.77 C112.38,67.513,112.484,67.857,112.484,68.273z"></path> <path fill="#FFFFFF" d="M116.515,70.144h-2.438v-4.106h2.438v0.891h-1.329v0.646h1.23v0.891h-1.23v0.775h1.329V70.144z"></path> <path fill="#FFFFFF" d="M118.917,68.649v1.494h-1.109v-4.106h1.346c1.116,0,1.674,0.404,1.674,1.214 c0,0.476-0.232,0.844-0.696,1.104l1.196,1.789h-1.258l-0.871-1.494H118.917z M118.917,67.815h0.208c0.388,0,0.582-0.172,0.582-0.515 c0-0.282-0.19-0.424-0.57-0.424h-0.22V67.815z"></path> <path fill="#FFFFFF" d="M124.583,66.037h1.241l-1.346,4.106h-1.306l-1.34-4.106h1.247l0.559,2.081 c0.116,0.463,0.18,0.785,0.191,0.967c0.013-0.131,0.039-0.295,0.078-0.492c0.04-0.196,0.074-0.351,0.104-0.463L124.583,66.037z"></path> <path fill="#FFFFFF" d="M126.842,70.144v-4.106h1.115v4.106H126.842z"></path> <path fill="#FFFFFF" d="M131.25,66.889c-0.265,0-0.471,0.107-0.618,0.324c-0.148,0.216-0.222,0.515-0.222,0.895 c0,0.79,0.3,1.186,0.901,1.186c0.182,0,0.357-0.025,0.528-0.076c0.17-0.051,0.342-0.111,0.514-0.183v0.938 c-0.343,0.151-0.73,0.228-1.163,0.228c-0.619,0-1.095-0.181-1.425-0.54c-0.331-0.359-0.496-0.879-0.496-1.559 c0-0.425,0.08-0.799,0.24-1.12c0.16-0.322,0.391-0.57,0.69-0.743c0.301-0.173,0.654-0.26,1.061-0.26 c0.444,0,0.868,0.097,1.272,0.289l-0.34,0.874c-0.151-0.071-0.304-0.132-0.455-0.18C131.586,66.913,131.423,66.889,131.25,66.889z"></path> <path fill="#FFFFFF" d="M136.167,70.144h-2.438v-4.106h2.438v0.891h-1.329v0.646h1.23v0.891h-1.23v0.775h1.329V70.144z"></path> <path fill-rule="evenodd" clip-rule="evenodd" fill="#FFFFFF" d="M70.451,72.547c-3.23-2.081-7.636-3.271-12.855-2.902 c5.233-0.943,9.923,0.942,13.447,2.664c0.053,1.025-0.043,2.485-0.06,3.259c-0.039,1.874,0.151,4.308,0.06,6.693 c0.005,0.924-0.108-0.188-0.119-0.354C70.753,78.718,70.627,75.554,70.451,72.547z"></path> <path fill-rule="evenodd" clip-rule="evenodd" fill="#FFFFFF" d="M47.171,72.073c-1.675,5.167-3.437,10.023-5.153,15.045 c3.887,0.549,7.3-0.675,10.602-1.776c3.303-1.101,6.872-2.09,10.722-2.19c2.844-0.076,5.76,0.476,7.405,2.071 c-1.574-0.903-3.652-1.673-6.338-1.717c-2.905-0.05-5.93,1.026-8.53,1.775c-4.339,1.254-8.907,2.725-14.454,2.31 c0.21-0.834,0.552-1.668,0.83-2.486c0.274-0.808,0.454-1.673,0.947-2.31c-0.224,0.051-0.128-0.005-0.06-0.296 c0.207-0.87,0.632-1.766,0.949-2.667c0.92-2.63,1.854-5.484,2.784-8.055c3.39,0.047,5.751-1.706,8.708-2.489 c2.867-0.758,6.729-1.103,9.715,0c-3.104-0.509-6.479-0.605-9.241,0.119C52.882,70.237,50.816,72.239,47.171,72.073z"></path> <path fill-rule="evenodd" clip-rule="evenodd" fill="#FFFFFF" d="M77.558,69.881c1.934-0.361,4.861-0.804,7.169-0.297 c-5.367-0.232-9.483,0.911-12.795,2.904c-0.141,2.691-0.256,5.063-0.415,7.7c-0.049,0.776-0.253,2.288-0.179,2.725 c-0.139-0.827,0-1.801,0-2.725c0-2.715,0.011-5.249,0-7.88c1.612-0.888,3.305-1.462,5.214-2.071 c1.527-0.489,3.258-1.188,5.627-1.126c0.534,0.038-0.729,0.104-0.889,0.119C80.02,69.345,78.603,69.591,77.558,69.881z"></path> <path fill-rule="evenodd" clip-rule="evenodd" fill="#FFFFFF" d="M95.567,71.777c1.754,5.425,3.656,10.47,5.391,15.813 c-6.614,0.438-11.671-1.585-17.12-3.078c-1.867-0.512-3.825-1.003-5.804-1.007c-2.64-0.005-4.668,0.694-6.34,1.775 c2.89-3.157,10.151-2.135,14.572-1.005c4.496,1.148,8.592,3.461,14.039,2.902c-1.524-4.932-3.427-10.001-5.094-14.988 c-2.045-0.052-3.626-0.628-5.095-1.301c-1.619-0.747-3.147-1.368-5.034-1.602c-0.399-0.049-0.88-0.052-1.363-0.118 c-0.652-0.09,0.4-0.086,0.829-0.059c1.972,0.121,3.79,0.54,5.449,1.363C91.579,71.257,93.412,71.688,95.567,71.777z"></path> <path fill-rule="evenodd" clip-rule="evenodd" fill="#FFFFFF" d="M94.678,73.258c0.495,0.156,0.502,0.955,0.651,1.421 c0.467,1.465,1.061,3.12,1.48,4.681c-0.663-1.404-1.149-3.187-1.777-4.857C94.873,74.076,94.554,73.688,94.678,73.258z"></path> <path fill-rule="evenodd" clip-rule="evenodd" fill="#FFFFFF" d="M97.344,75.154c0.16,0.135,0.15,0.439,0.295,0.592 C97.565,75.971,97.405,75.329,97.344,75.154z"></path> <path fill-rule="evenodd" clip-rule="evenodd" fill="#FFFFFF" d="M40.241,88.186c3.75,0.239,8.063-0.33,11.847-0.949 c0.489-0.078,0.964-0.313,1.421-0.177c0.949-0.388,2.062-0.518,3.199-0.771c3.094-0.686,6.553-2.32,10.425-1.775 c1.504,0.21,2.625,0.765,3.614,1.599c-0.433-0.19-0.975-0.621-1.481-0.83c-2.371-0.971-5.109-0.457-7.345,0.119 c-2.379,0.614-4.76,1.289-7.049,1.659c-4.262,0.688-9.659,1.91-15.164,1.541c0.159-0.478,0.351-1.223,0.651-1.364 c0.133-1.011,0.672-1.962,1.066-2.96c1.092-2.769,2.073-5.617,3.317-8.413c0.046-0.101,0.218-0.671,0.061-0.117 c-0.613,2.14-1.546,4.158-2.311,6.219C41.734,84.006,41.015,86.053,40.241,88.186z"></path> <path fill-rule="evenodd" clip-rule="evenodd" fill="#FFFFFF" d="M97.639,76.101c0.087-0.315,0.227,0.301,0.297,0.474 c1.606,3.982,3.217,8.06,4.738,12.026c-7.776,0.192-14.177-1.223-20.495-2.785c-3.341-0.825-7.923-2.032-10.485,0.356 c0.703-0.851,2.073-1.444,3.495-1.659c2.505-0.377,4.89,0.312,6.932,0.888c6.027,1.704,13.471,2.922,20.021,2.844 C100.693,84.145,99.198,80.093,97.639,76.101z"></path> <path fill-rule="evenodd" clip-rule="evenodd" fill="#FFFFFF" d="M99.654,77.818c1.994,4.062,4.126,8.8,6.22,13.033 c-3.591-0.043-7.541-0.471-11.373-0.652c-0.537-0.024-1.845,0.02-1.718-0.178c0.209-0.327,0.03,0.016-0.178,0.059 c-0.589,0.121-1.44-0.026-2.132-0.059c-4.534-0.215-9.343-0.672-13.803-0.829c-0.144-0.171,0.313-0.363,0.532-0.534 c0.244-0.188,0.484-0.443,0.711-0.531c8.888,0.823,18.421,1.597,27.486,2.427C103.595,86.272,101.518,82.183,99.654,77.818z"></path> <path fill-rule="evenodd" clip-rule="evenodd" fill="#FFFFFF" d="M36.982,90.554c10.264-0.946,20.999-1.797,30.744-2.723 c0.489,0.419,0.902,0.998,1.658,1.301c1.41,0.567,3.276,0.339,4.857,0c-1.277,1.067-3.261,1.502-5.036,0.771 c-0.511-0.211-0.937-0.731-1.362-0.83c-0.515-0.119-1.301,0.076-2.014,0.119c-9.571,0.563-19.857,1.119-29.203,1.718 c1.919-4.34,3.892-8.627,5.983-12.796c-0.008-0.146,0.071-0.101,0.059,0C40.655,82.427,38.791,86.355,36.982,90.554z"></path> <path fill-rule="evenodd" clip-rule="evenodd" fill="#FFFFFF" d="M83.185,82.38c-4.155-0.982-8.987,0.107-11.432,2.251 c1.433-1.687,4.502-3.612,7.879-3.021C80.53,81.768,82.134,81.932,83.185,82.38z"></path> <path fill-rule="evenodd" clip-rule="evenodd" fill="#FFFFFF" d="M70.687,84.631c-2.634-2.076-7.092-3.325-11.491-2.192 C63.071,80.628,68.695,81.811,70.687,84.631z"></path> <path fill-rule="evenodd" clip-rule="evenodd" fill="#FFFFFF" d="M44.031,83.447c0.17-0.083-0.136,0.493-0.178,0.65 c-0.165,0.614-0.294,1.507-0.474,2.074c2.374,0.227,4.526-0.444,6.457-0.83c0.402-0.081-0.141,0.101-0.059,0.059 c-0.917,0.476-0.992,0.39-1.777,0.594c-1.317,0.341-3.088,0.644-5.095,0.65C43.242,85.542,43.666,84.523,44.031,83.447z"></path> <path fill-rule="evenodd" clip-rule="evenodd" fill="#FFFFFF" d="M99.002,86.229c-0.157-0.969-0.492-1.758-0.651-2.724 c0.405,1.013,0.779,2.063,1.124,3.139c-2.706-0.056-5.088-0.439-6.989-1.303c-0.104,0.016-0.121-0.056-0.06-0.061 c1.217,0.507,2.748,0.545,3.852,0.891C97.043,86.017,97.961,86.284,99.002,86.229z"></path> <path fill-rule="evenodd" clip-rule="evenodd" fill="#FFFFFF" d="M61.505,81.195c-3.815,0.646-7.373,1.552-10.544,2.844 C53.874,82.487,57.124,81.276,61.505,81.195z"></path> <path fill-rule="evenodd" clip-rule="evenodd" fill="#FFFFFF" d="M81.942,86.999c-1.956-0.695-5.16-1.018-7.404-0.531 C76.689,85.331,80.125,85.703,81.942,86.999z"></path> <path fill-rule="evenodd" clip-rule="evenodd" fill="#FFFFFF" d="M73.531,66.532c0,0.444-0.285,0.806-0.636,0.806h-3.813 c-0.351,0-0.635-0.361-0.635-0.806V44.996c0-0.444,0.284-0.804,0.635-0.804h3.813c0.351,0,0.636,0.36,0.636,0.804V66.532z"></path> <path fill-rule="evenodd" clip-rule="evenodd" fill="#FFFFFF" d="M63.414,54.286c-0.301,0-0.547-0.285-0.547-0.636v-3.813 c0-0.351,0.246-0.635,0.547-0.635H78.08c0.303,0,0.547,0.284,0.547,0.635v3.813c0,0.351-0.244,0.636-0.547,0.636H63.414z"></path> <path fill="#262261" d="M32.785,109.654c-0.424-0.484-1.134-0.769-2.13-0.853l1.819-1.593c0.867,0.049,1.609,0.426,2.226,1.13 c0.266,0.304,0.487,0.615,0.665,0.935c0.177,0.32,0.359,0.743,0.547,1.271c0.268,0.784,0.607,1.411,1.02,1.883 c0.193,0.22,0.479,0.407,0.857,0.561c0.379,0.154,0.8,0.247,1.262,0.277l-1.819,1.594c-0.875-0.05-1.62-0.425-2.232-1.124 c-0.274-0.313-0.5-0.635-0.675-0.967c-0.176-0.331-0.353-0.746-0.53-1.245C33.526,110.739,33.189,110.116,32.785,109.654z"></path> <path fill="#262261" d="M108.442,108.576c0.438-0.471,0.649-1.207,0.632-2.206l1.77,1.648c0.038,0.867-0.263,1.644-0.9,2.328 c-0.275,0.296-0.562,0.548-0.863,0.756c-0.3,0.208-0.702,0.433-1.209,0.672c-0.753,0.347-1.343,0.748-1.77,1.206 c-0.199,0.214-0.356,0.518-0.472,0.91c-0.114,0.393-0.164,0.82-0.148,1.283l-1.769-1.648c-0.039-0.876,0.259-1.654,0.894-2.335 c0.283-0.305,0.58-0.561,0.893-0.769c0.313-0.209,0.708-0.427,1.185-0.654C107.437,109.423,108.023,109.025,108.442,108.576z"></path> <path fill="#262261" d="M43.333,120.521l2.842-6.17l4.575,2.107l-0.48,1.044l-3.329-1.534l-0.63,1.368l3.097,1.427l-0.479,1.039 l-3.097-1.427l-0.773,1.68l3.446,1.587l-0.479,1.04L43.333,120.521z"></path> <path fill="#262261" d="M50.829,121.409l1.312,0.276c-0.058,0.451,0,0.813,0.17,1.088c0.172,0.273,0.457,0.473,0.854,0.598 c0.422,0.133,0.768,0.143,1.038,0.031c0.27-0.11,0.442-0.285,0.516-0.524c0.048-0.153,0.044-0.298-0.012-0.434 c-0.057-0.136-0.184-0.278-0.383-0.429c-0.136-0.101-0.457-0.305-0.959-0.611c-0.646-0.395-1.072-0.762-1.275-1.104 c-0.286-0.481-0.349-0.979-0.187-1.491c0.104-0.33,0.294-0.609,0.571-0.838c0.277-0.229,0.616-0.363,1.015-0.403 c0.399-0.039,0.849,0.019,1.346,0.175c0.814,0.256,1.37,0.625,1.669,1.111c0.299,0.486,0.366,1.029,0.2,1.631l-1.327-0.353 c0.048-0.351,0.003-0.628-0.136-0.831c-0.137-0.204-0.391-0.363-0.76-0.479c-0.379-0.119-0.702-0.134-0.966-0.046 c-0.17,0.057-0.282,0.169-0.335,0.337c-0.048,0.153-0.024,0.305,0.071,0.454c0.122,0.191,0.478,0.461,1.066,0.811 c0.59,0.351,1.011,0.653,1.267,0.91c0.254,0.256,0.425,0.551,0.509,0.883c0.085,0.333,0.064,0.705-0.065,1.114 c-0.117,0.371-0.329,0.687-0.638,0.946c-0.308,0.259-0.675,0.409-1.102,0.447c-0.426,0.04-0.922-0.029-1.484-0.205 c-0.819-0.258-1.388-0.645-1.709-1.16C50.776,122.795,50.686,122.161,50.829,121.409z"></path> <path fill="#262261" d="M59.479,126.042l1.012-5.552l-1.982-0.361l0.206-1.131l5.31,0.967l-0.206,1.131l-1.978-0.36l-1.012,5.552 L59.479,126.042z"></path> <path fill="#262261" d="M65.486,120.138l2.504,0.13c0.565,0.03,0.993,0.096,1.285,0.198c0.392,0.138,0.722,0.363,0.99,0.678 c0.268,0.313,0.465,0.691,0.59,1.132c0.125,0.441,0.173,0.98,0.138,1.615c-0.028,0.559-0.123,1.035-0.281,1.434 c-0.196,0.484-0.46,0.871-0.791,1.159c-0.249,0.22-0.578,0.384-0.989,0.492c-0.308,0.079-0.715,0.106-1.22,0.08l-2.578-0.134 L65.486,120.138z M66.796,121.356l-0.233,4.493l1.022,0.053c0.383,0.021,0.66,0.014,0.832-0.021 c0.225-0.043,0.413-0.128,0.567-0.253s0.284-0.337,0.393-0.636s0.177-0.711,0.203-1.235c0.028-0.524,0.002-0.93-0.076-1.216 c-0.078-0.285-0.195-0.511-0.354-0.677s-0.363-0.283-0.617-0.353c-0.189-0.053-0.563-0.094-1.121-0.123L66.796,121.356z"></path> <path fill="#262261" d="M80.294,126.451l-1.29,0.174l-0.655-4.862c-0.412,0.504-0.924,0.905-1.535,1.203l-0.158-1.171 c0.322-0.156,0.659-0.414,1.013-0.775c0.354-0.36,0.576-0.756,0.668-1.186l1.046-0.142L80.294,126.451z"></path> <path fill="#262261" d="M83.239,124.354l1.189-0.438c0.092,0.241,0.215,0.406,0.371,0.495c0.155,0.089,0.337,0.108,0.543,0.056 c0.262-0.064,0.453-0.239,0.576-0.523c0.125-0.285,0.118-0.813-0.018-1.58c-0.227,0.447-0.579,0.73-1.055,0.848 c-0.52,0.129-1.017,0.039-1.492-0.268c-0.475-0.307-0.792-0.781-0.951-1.424c-0.166-0.668-0.101-1.256,0.196-1.764 c0.296-0.508,0.751-0.838,1.365-0.99c0.67-0.165,1.281-0.043,1.839,0.368c0.557,0.411,0.98,1.209,1.274,2.394 c0.3,1.205,0.292,2.13-0.024,2.774c-0.314,0.645-0.829,1.055-1.546,1.232c-0.517,0.128-0.968,0.094-1.353-0.102 C83.769,125.236,83.463,124.877,83.239,124.354z M85.416,120.885c-0.102-0.408-0.273-0.701-0.518-0.881 c-0.242-0.178-0.487-0.236-0.732-0.176c-0.233,0.059-0.405,0.198-0.513,0.421c-0.11,0.224-0.112,0.544-0.008,0.964 c0.104,0.426,0.266,0.717,0.483,0.875s0.452,0.206,0.704,0.144c0.243-0.061,0.424-0.207,0.542-0.44 C85.494,121.559,85.506,121.256,85.416,120.885z"></path> <path fill="#262261" d="M89.817,120.342c-0.363-0.018-0.661-0.117-0.891-0.298c-0.229-0.181-0.395-0.411-0.496-0.689 c-0.174-0.476-0.152-0.93,0.065-1.361c0.219-0.432,0.634-0.76,1.246-0.984c0.606-0.222,1.134-0.239,1.583-0.052 c0.448,0.188,0.76,0.52,0.934,0.995c0.108,0.296,0.129,0.587,0.06,0.874s-0.222,0.543-0.455,0.767 c0.406,0.013,0.751,0.121,1.035,0.325c0.284,0.206,0.491,0.487,0.623,0.844c0.215,0.589,0.203,1.136-0.038,1.643 c-0.241,0.505-0.673,0.872-1.297,1.102c-0.58,0.212-1.118,0.236-1.616,0.074c-0.587-0.193-0.995-0.603-1.224-1.229 c-0.128-0.346-0.157-0.693-0.093-1.045C89.318,120.955,89.507,120.633,89.817,120.342z M89.62,119.018 c0.089,0.244,0.227,0.409,0.415,0.494c0.188,0.086,0.396,0.087,0.625,0.004c0.232-0.086,0.393-0.223,0.481-0.411 c0.09-0.188,0.088-0.405,0-0.648c-0.084-0.229-0.221-0.388-0.409-0.475s-0.395-0.09-0.622-0.007 c-0.234,0.086-0.396,0.224-0.484,0.414C89.538,118.578,89.535,118.789,89.62,119.018z M90.507,121.791 c0.123,0.337,0.306,0.568,0.547,0.693s0.491,0.141,0.75,0.046c0.253-0.093,0.429-0.26,0.526-0.502 c0.1-0.241,0.086-0.533-0.039-0.876c-0.109-0.299-0.281-0.508-0.517-0.627c-0.234-0.12-0.48-0.133-0.739-0.038 c-0.299,0.109-0.482,0.294-0.555,0.554C90.411,121.301,90.418,121.551,90.507,121.791z"></path> <path fill="#262261" d="M99.242,120.28l-1.166,0.578l-2.18-4.397c-0.229,0.61-0.585,1.154-1.068,1.631l-0.524-1.059 c0.255-0.25,0.492-0.603,0.712-1.059c0.219-0.454,0.303-0.9,0.252-1.337l0.946-0.469L99.242,120.28z"></path> </svg> 